<svg id="Capa_1" enable-background="new 0 0 512 512" height="512" fill="#797979" viewBox="0 0 512 512" width="512" xmlns="http://www.w3.org/2000/svg"><g><path d="m210.8 105.401h75.4v75.399h-75.4z"/><path d="m105.4 105.401h75.4v75.399h-75.4z"/><path d="m421.6 176.177c11.692-19.384 32.865-31.379 55.569-31.379 6.745 0 13.439 1.072 19.832 3.131v-42.528h-75.4v70.776z"/><path d="m316.2 105.401h75.399v75.399h-75.399z"/><path d="m0 105.401h75.4v75.399h-75.4z"/><path d="m105.4 316.201h75.4v75.399h-75.4z"/><path d="m105.4 210.801h75.4v75.4h-75.4z"/><path d="m105.4 421.6h75.4v75.4h-75.4z"/><path d="m210.8 210.801h75.4v75.4h-75.4z"/><path d="m105.4.001h75.4v75.4h-75.4z"/><path d="m0 .001h75.4v75.4h-75.4z"/><path d="m425.228 232.26h37.469v69.718h-37.469z" transform="matrix(.5 -.866 .866 .5 -9.351 518.042)"/><path d="m389.407 291.895-94.525 163.722 7.699 56.382 52.679-21.523 94.525-163.722z"/><path d="m498.519 242.344 8.805-15.251c9.626-16.673 3.913-37.992-12.759-47.618-5.49-3.17-11.482-4.676-17.397-4.676-12.047 0-23.765 6.253-30.221 17.435l-8.805 15.251z"/></g></svg>