<svg width="90" height="90" viewBox="0 0 90 90" fill="none" xmlns="http://www.w3.org/2000/svg">
<g filter="url(#filter0_d_14_224)">
<circle cx="44" cy="42" r="38" fill="#475E36"/>
</g>
<path d="M19.6269 55.7824V63.5544H18.2279V55.7824H19.6269ZM22.7675 62H21.3685V55.7824H22.7675V62ZM25.7941 59.4093H24.3951V55.7824H25.7941V59.4093ZM28.7571 60.5699C28.5499 61.4404 28.0006 62 26.9333 62H26.5913V60.9119H26.9333C28.239 60.9119 28.6639 60.1244 28.498 58.9016L28.239 56.8705H27.0473V55.7824H29.3892L30.3426 62H29.0058L28.7986 60.5699H28.7571ZM32.6144 59.4093H31.2155V55.7824H32.6144V59.4093ZM39.3445 55.7824V62H37.9455V56.8705H34.0906V55.7824H39.3445ZM34.1217 58.4145H35.5207V62H34.1217V58.4145ZM47.0121 55.7824H48.4214V57.8549C48.4214 59.6788 47.4473 60.3005 46.1624 60.456L47.1572 63.5544H45.7686L43.2608 55.7824H44.6494L45.8307 59.4404C46.6908 59.2953 47.0121 58.8601 47.0121 57.7098V55.7824ZM54.106 60.9119H54.8935V62H49.6086V60.9119H52.6967V56.8705H49.6086V55.7824H54.106V60.9119ZM62.6282 55.7824V58.9948C62.6282 61.2228 61.6852 62 59.5505 62H56.3484L55.6748 55.7824H57.0427L57.5816 60.9119H59.3018C60.7422 60.9119 61.281 60.4663 61.281 58.8497V55.7824H62.6282ZM58.6178 59.7409V55.7824H59.9442V59.7409H58.6178ZM67.4743 55.7824C69.1841 55.7824 69.9095 56.4663 69.9095 58.4249V62H68.5002V58.5492C68.5002 57.2746 68.1168 56.8705 67.1738 56.8705H66.21V62H63.7023V60.9119H64.8732V56.8705H64.065V55.7824H67.4743Z" fill="white"/>
<path d="M41.5558 24.8042H46.4233V29.6716H41.5558V24.8042Z" fill="white"/>
<path d="M34.7515 24.8042H39.619V29.6716H34.7515V24.8042Z" fill="white"/>
<path d="M55.1642 29.3732C55.919 28.1218 57.2858 27.3475 58.7515 27.3475C59.1869 27.3475 59.6191 27.4167 60.0318 27.5496V24.8042H55.1642V29.3732H55.1642Z" fill="white"/>
<path d="M48.3599 24.8042H53.2274V29.6716H48.3599V24.8042Z" fill="white"/>
<path d="M27.9474 24.8042H32.8149V29.6716H27.9474V24.8042Z" fill="white"/>
<path d="M34.7515 38.4126H39.619V43.2801H34.7515V38.4126Z" fill="white"/>
<path d="M34.7515 31.6084H39.619V36.4759H34.7515V31.6084Z" fill="white"/>
<path d="M34.7515 45.2167H39.619V50.0842H34.7515V45.2167Z" fill="white"/>
<path d="M41.5558 31.6084H46.4233V36.4759H41.5558V31.6084Z" fill="white"/>
<path d="M34.7515 18H39.619V22.8675H34.7515V18Z" fill="white"/>
<path d="M27.9474 18H32.8149V22.8675H27.9474V18Z" fill="white"/>
<path d="M54.0538 35.167L55.2633 33.0722L59.1609 35.3226L57.9514 37.4173L54.0538 35.167Z" fill="white"/>
<path d="M53.0859 36.8435L46.9838 47.4127L47.4808 51.0525L50.8815 49.6631L56.9837 39.0939L53.0859 36.8435Z" fill="white"/>
<path d="M60.1298 33.6447L60.6982 32.6601C61.3196 31.5838 60.9508 30.2075 59.8745 29.5861C59.5201 29.3815 59.1333 29.2842 58.7514 29.2842C57.9737 29.2842 57.2172 29.6879 56.8005 30.4098L56.2321 31.3943L60.1298 33.6447Z" fill="white"/>
<defs>
<filter id="filter0_d_14_224" x="0" y="0" width="90" height="90" filterUnits="userSpaceOnUse" color-interpolation-filters="sRGB">
<feFlood flood-opacity="0" result="BackgroundImageFix"/>
<feColorMatrix in="SourceAlpha" type="matrix" values="0 0 0 0 0 0 0 0 0 0 0 0 0 0 0 0 0 0 127 0" result="hardAlpha"/>
<feOffset dx="1" dy="3"/>
<feGaussianBlur stdDeviation="3.5"/>
<feComposite in2="hardAlpha" operator="out"/>
<feColorMatrix type="matrix" values="0 0 0 0 0 0 0 0 0 0 0 0 0 0 0 0 0 0 0.25 0"/>
<feBlend mode="normal" in2="BackgroundImageFix" result="effect1_dropShadow_14_224"/>
<feBlend mode="normal" in="SourceGraphic" in2="effect1_dropShadow_14_224" result="shape"/>
</filter>
</defs>
</svg>
