<?xml version="1.0" encoding="iso-8859-1"?>
<!-- Generator: Adobe Illustrator 19.0.0, SVG Export Plug-In . SVG Version: 6.00 Build 0)  -->
<svg version="1.1" id="Capa_1" xmlns="http://www.w3.org/2000/svg" xmlns:xlink="http://www.w3.org/1999/xlink" x="0px" y="0px"
	 fill="#99b882" viewBox="0 0 512 512" style="enable-background:new 0 0 512 512;" xml:space="preserve">
<g>
	<g>
		<path d="M448.8,0h-337.4c-34.848,0-63.2,28.352-63.2,63.2v385.601c0,34.847,28.351,63.199,63.199,63.199h337.4
			c8.284,0,15-6.717,15-15v-96.4V15C463.8,6.716,457.085,0,448.8,0z M159.6,96.399h192.801c8.284,0,15,6.716,15,15s-6.716,15-15,15
			H159.6c-8.284,0-15-6.716-15-15S151.315,96.399,159.6,96.399z M111.401,482c-18.307,0-33.2-14.894-33.2-33.199
			c0-0.572,0.015-1.142,0.043-1.706c0.891-17.518,15.423-31.495,33.156-31.495h322.4V482H111.401z"/>
	</g>
</g>
<g>
</g>
<g>
</g>
<g>
</g>
<g>
</g>
<g>
</g>
<g>
</g>
<g>
</g>
<g>
</g>
<g>
</g>
<g>
</g>
<g>
</g>
<g>
</g>
<g>
</g>
<g>
</g>
<g>
</g>
</svg>
