<svg width="26" height="26" viewBox="0 0 26 26" fill="none" xmlns="http://www.w3.org/2000/svg">
<path d="M21.9375 15.793H13.7617V17.5195H17.0625C17.4832 17.5195 17.8242 17.8606 17.8242 18.2812V22.3438C17.8242 22.7644 17.4832 23.1055 17.0625 23.1055H13.7617V24.4766H14.2188C14.6394 24.4766 14.9805 24.8176 14.9805 25.2383C14.9805 25.659 14.6394 26 14.2188 26H11.7812C11.3606 26 11.0195 25.659 11.0195 25.2383C11.0195 24.8176 11.3606 24.4766 11.7812 24.4766H12.2383V23.1055H4.0625C3.64183 23.1055 3.30078 22.7644 3.30078 22.3438V18.2812C3.30078 17.8606 3.64183 17.5195 4.0625 17.5195H12.2383V15.793H8.9375C8.51683 15.793 8.17578 15.4519 8.17578 15.0312V10.9688C8.17578 10.5481 8.51683 10.207 8.9375 10.207H12.2383V8.48047H4.0625C3.64183 8.48047 3.30078 8.13942 3.30078 7.71875V3.65625C3.30078 3.23558 3.64183 2.89453 4.0625 2.89453H12.2383V1.52344H11.7812C11.3606 1.52344 11.0195 1.18239 11.0195 0.761719C11.0195 0.341047 11.3606 0 11.7812 0H14.2188C14.6394 0 14.9805 0.341047 14.9805 0.761719C14.9805 1.18239 14.6394 1.52344 14.2188 1.52344H13.7617V2.89453H17.0625C17.4832 2.89453 17.8242 3.23558 17.8242 3.65625V7.71875C17.8242 8.13942 17.4832 8.48047 17.0625 8.48047H13.7617V10.207H21.9375C22.3582 10.207 22.6992 10.5481 22.6992 10.9688V15.0312C22.6992 15.4519 22.3582 15.793 21.9375 15.793ZM16.3008 21.582V19.043H13.7617V21.582H16.3008ZM4.82422 19.043V21.582H12.2383V19.043H4.82422ZM4.82422 4.41797V6.95703H12.2383V4.41797H4.82422ZM16.3008 6.95703V4.41797H13.7617V6.95703H16.3008ZM9.69922 11.7305V14.2695H12.2383V11.7305H9.69922ZM21.1758 11.7305H13.7617V14.2695H21.1758V11.7305Z" fill="#797979"/>
<rect x="4" y="4" width="13" height="3" fill="#797979"/>
<rect x="9" y="11" width="13" height="4" fill="#797979"/>
<rect x="4" y="18" width="13" height="4" fill="#797979"/>
</svg>
