<svg id="Capa_1" fill="#797979" enable-background="new 0 0 512 512" height="512" viewBox="0 0 512 512" width="512" xmlns="http://www.w3.org/2000/svg"><g><path d="m432 201h-161v-34h65c8.284 0 15-6.716 15-15v-80c0-8.284-6.716-15-15-15h-65v-27h9c8.284 0 15-6.716 15-15s-6.716-15-15-15h-48c-8.284 0-15 6.716-15 15s6.716 15 15 15h9v27h-161c-8.284 0-15 6.716-15 15v80c0 8.284 6.716 15 15 15h161v34h-65c-8.284 0-15 6.716-15 15v80c0 8.284 6.716 15 15 15h65v34h-161c-8.284 0-15 6.716-15 15v80c0 8.284 6.716 15 15 15h161v27h-9c-8.284 0-15 6.716-15 15s6.716 15 15 15h48c8.284 0 15-6.716 15-15s-6.716-15-15-15h-9v-27h65c8.284 0 15-6.716 15-15v-80c0-8.284-6.716-15-15-15h-65v-34h161c8.284 0 15-6.716 15-15v-80c0-8.284-6.716-15-15-15zm-111-114v50h-50v-50zm-226 50v-50h146v50zm0 288v-50h146v50zm226-50v50h-50v-50zm-130-94v-50h50v50zm226 0h-146v-50h146z"/></g></svg>