<svg width="16" height="15" viewBox="0 0 16 15" fill="none" xmlns="http://www.w3.org/2000/svg">
<path d="M2.37225 8.20435H3.60397C3.47842 8.54808 3.40983 8.91903 3.40983 9.30566V13.9609C3.40983 14.1221 3.43789 14.2768 3.48894 14.4207H1.45263C0.691966 14.4207 0.0731518 13.8018 0.0731518 13.0412V10.5034C0.0731206 9.23574 1.10451 8.20435 2.37225 8.20435Z" fill="white"/>
<path d="M12.6633 9.30566C12.6633 8.919 12.5947 8.54808 12.4691 8.20435H13.7009C14.9686 8.20435 16 9.23573 16 10.5035V13.0412C16 13.8019 15.3812 14.4207 14.6205 14.4207H12.5842C12.6352 14.2767 12.6633 14.1221 12.6633 13.9609V9.30566Z" fill="white"/>
<path d="M6.62861 7.00647H9.44449C10.7122 7.00647 11.7436 8.03786 11.7436 9.3056V13.9608C11.7436 14.2147 11.5378 14.4206 11.2838 14.4206H4.7893C4.53534 14.4206 4.32947 14.2148 4.32947 13.9608V9.3056C4.32947 8.03786 5.36086 7.00647 6.62861 7.00647Z" fill="white"/>
<path d="M8.03655 0.910278C9.56118 0.910278 10.8015 2.15065 10.8015 3.6753C10.8015 4.70946 10.2308 5.61266 9.38782 6.08686C8.98799 6.31176 8.52705 6.4403 8.03655 6.4403C7.54605 6.4403 7.08511 6.31176 6.68529 6.08686C5.84231 5.61266 5.27156 4.70943 5.27156 3.6753C5.27156 2.15068 6.51192 0.910278 8.03655 0.910278Z" fill="white"/>
<path d="M12.8918 3.48755C14.0321 3.48755 14.9597 4.41517 14.9597 5.5554C14.9597 6.69563 14.0321 7.62325 12.8918 7.62325C12.6026 7.62325 12.3272 7.56334 12.077 7.45564C11.6444 7.26941 11.2877 6.93973 11.067 6.52678C10.9121 6.23696 10.824 5.90632 10.824 5.5554C10.824 4.4152 11.7516 3.48755 12.8918 3.48755Z" fill="white"/>
<path d="M3.18129 3.48755C4.32153 3.48755 5.24915 4.41517 5.24915 5.5554C5.24915 5.90635 5.16102 6.23699 5.0061 6.52678C4.7854 6.93976 4.42872 7.26944 3.99615 7.45564C3.74595 7.56334 3.47053 7.62325 3.18129 7.62325C2.04106 7.62325 1.11344 6.69563 1.11344 5.5554C1.11344 4.41517 2.04106 3.48755 3.18129 3.48755Z" fill="white"/>
</svg>
