<svg width="17" height="17" viewBox="0 0 17 17" fill="none" xmlns="http://www.w3.org/2000/svg">
<g clip-path="url(#clip0_14_289)">
<path d="M11.536 15.0681H4.24993C3.61096 15.0681 3.09084 14.5482 3.09084 13.909C3.09084 13.0567 3.72684 12.3242 4.56984 12.2037L7.69013 11.7138L2.42937 6.45306C1.85378 5.87733 1.85378 4.9408 2.42937 4.36593C3.00976 3.78553 3.94629 3.78638 4.52117 4.36126L5.89051 5.7306C5.95772 5.50181 6.08138 5.28703 6.26136 5.10691C6.79308 4.57378 7.62603 4.53133 8.20473 4.9725C8.27123 4.73833 8.39645 4.51817 8.57954 4.33423C9.11197 3.8011 9.94577 3.7578 10.5238 4.20053C10.5887 3.96565 10.7138 3.74535 10.8977 3.56155C11.4781 2.98116 12.4146 2.98201 12.9895 3.55688L15.895 6.74976C16.6074 7.53334 16.9999 8.54797 16.9999 9.6066C16.9999 10.7401 16.5588 11.8065 15.7566 12.6078L14.5411 13.8233C13.7383 14.6261 12.6712 15.0681 11.536 15.0681ZM3.47725 4.70126C3.29727 4.70126 3.11715 4.77003 2.97963 4.90685C2.70145 5.18572 2.70145 5.63241 2.97581 5.90676L8.77352 11.7045C8.87625 11.8073 8.91261 11.9594 8.86776 12.0971C8.8222 12.2354 8.70391 12.3367 8.5603 12.359L4.68501 12.9678C4.21441 13.0352 3.86366 13.4393 3.86366 13.909C3.86366 14.1224 4.0367 14.2955 4.24993 14.2955H11.536C12.4649 14.2955 13.338 13.9338 13.9948 13.277L15.2104 12.0615C15.8664 11.4055 16.2272 10.5338 16.2272 9.6066C16.2272 8.74025 15.9058 7.91041 15.324 7.26988L12.4308 4.09002C12.1689 3.83039 11.723 3.82883 11.4487 4.10318C11.3112 4.24071 11.2386 4.41686 11.2386 4.60462C11.2386 4.79252 11.3119 4.96939 11.4449 5.10239L11.4781 5.1355C11.6288 5.28618 11.6288 5.53124 11.4781 5.68193C11.3305 5.83021 11.091 5.83248 10.9395 5.68957C10.9395 5.68957 10.9395 5.68887 10.9388 5.68887H10.9379C10.9379 5.68887 10.9379 5.68887 10.9372 5.68802L10.9363 5.68731C10.9363 5.68731 10.9363 5.68731 10.9356 5.68646L10.125 4.87586C9.85154 4.60236 9.40401 4.60236 9.1305 4.87586C8.85163 5.15488 8.85163 5.60072 9.12583 5.87507L9.93191 6.681C10.0076 6.75669 10.0454 6.8556 10.0454 6.9545C10.0454 7.0534 10.0076 7.1523 9.93261 7.22814C9.78193 7.37883 9.53701 7.37883 9.38632 7.22814L7.80686 5.64868C7.53336 5.37504 7.08582 5.37504 6.81232 5.64868C6.53344 5.92756 6.53344 6.3734 6.80765 6.64775L8.3864 8.2265C8.4621 8.3022 8.50002 8.4011 8.50002 8.5C8.50002 8.5989 8.4621 8.6978 8.38711 8.7735C8.23642 8.92419 7.9915 8.92419 7.84082 8.7735L3.97487 4.90755C3.83734 4.77003 3.65722 4.70126 3.47725 4.70126Z" fill="white"/>
<path d="M2.20923 8.60895C2.15589 8.60895 2.10184 8.59819 2.05006 8.57499C0.805223 8.01157 0 6.76915 0 5.40914C0 3.49194 1.56008 1.93187 3.47727 1.93187C4.83728 1.93187 6.07985 2.73695 6.64242 3.98263C6.73042 4.17661 6.64397 4.40611 6.44914 4.49341C6.25445 4.58071 6.02566 4.49412 5.93836 4.30028C5.50031 3.33121 4.53435 2.70455 3.47727 2.70455C1.98596 2.70455 0.77268 3.91769 0.77268 5.40914C0.77268 6.46621 1.39934 7.43203 2.36841 7.87023C2.56239 7.95837 2.64885 8.18702 2.56155 8.38171C2.49674 8.52391 2.3561 8.60895 2.20923 8.60895Z" fill="white"/>
</g>
<defs>
<clipPath id="clip0_14_289">
<rect width="17" height="17" fill="white"/>
</clipPath>
</defs>
</svg>
