<svg width="73" height="69" viewBox="0 0 73 69" fill="none" xmlns="http://www.w3.org/2000/svg">
<path d="M0 4C0 1.79086 1.79086 0 4 0H69C71.2091 0 73 1.79086 73 4V65C73 67.2091 71.2091 69 69 69H4C1.79086 69 0 67.2091 0 65V4Z" fill="#D9D9D9"/>
<path d="M23.3927 37.7495L17.1977 43.9445C17.1523 43.9899 17.1069 44.0353 17.0616 44.0693H14.1569C12.4096 44.0693 11.0027 42.6511 11.0027 40.9151V40.9038C11.0027 39.1565 12.4096 37.7495 14.1569 37.7495H23.3927Z" fill="#4D4F48"/>
<path d="M31.6186 37.7496V44.0694H14.1569C12.4096 44.0694 11.0027 42.6512 11.0027 40.9153V40.9039C11.0027 39.1566 12.4096 37.7496 14.1569 37.7496H31.6186Z" fill="#4D4F48"/>
<path d="M61.3034 47.0192V62.4606H29.969V37.748H52.0322C57.1532 37.748 61.3034 41.8982 61.3034 47.0192Z" fill="#4D4F48"/>
<path d="M41.825 42.3589H43.1241V62.4631H41.825V42.3589Z" fill="#4D4F48"/>
<path d="M54.9841 38.2319V62.462H61.3062V47.0203C61.3062 42.9311 58.6572 39.467 54.9841 38.2319Z" fill="#4D4F48"/>
<path d="M47.4694 33.7939V37.7832L42.4828 43.0887L37.4846 37.7832V33.7939H47.4694Z" fill="#4D4F48"/>
<path d="M51.6306 15.5349V27.7042C51.6306 32.7566 47.5348 36.8524 42.4824 36.8524C37.43 36.8524 33.3342 32.7566 33.3342 27.7042V15.5349H51.6306Z" fill="#4D4F48"/>
<path d="M51.6265 15.5305V27.6999C51.6265 27.9884 51.6162 28.2769 51.5853 28.5552C51.5544 28.957 51.4823 29.3485 51.3895 29.7401C50.4725 33.8206 46.835 36.8501 42.4866 36.8501C39.9621 36.8501 37.6745 35.83 36.0155 34.171C34.3565 32.512 33.3364 30.2245 33.3364 27.6999V15.5305H51.6265Z" fill="#4D4F48"/>
<path d="M31.3306 15.3881V25.7473H33.3395V19.5682C33.3395 17.4837 35.0294 15.7938 37.114 15.7938L37.2568 15.9549C38.5726 17.4398 40.4616 18.2898 42.4456 18.2898H50.3295C51.0439 18.2898 51.6231 18.869 51.6231 19.5835V25.7473H53.5814V15.3881H31.3306Z" fill="#4D4F48"/>
<path d="M33.3365 21.1051V25.7523H31.3271V21.7955C31.8836 21.3627 32.5739 21.1051 33.3365 21.1051Z" fill="#4D4F48"/>
<path d="M36.0155 9.61475H35.8356C33.3475 9.61475 31.3306 11.6316 31.3306 14.1197V25.7473H33.3395V19.5682C33.3395 17.8691 34.4712 16.4523 36.0155 15.9795V9.61475Z" fill="#4D4F48"/>
<path d="M54.8481 25.3522C54.8481 27.1456 53.4098 28.5839 51.6165 28.5839V22.1383C53.4098 22.1383 54.8481 23.5766 54.8481 25.3522Z" fill="#4D4F48"/>
<path d="M52.4787 22.2678C52.2028 22.192 51.9175 22.1383 51.6165 22.1383V28.5839C51.9175 28.5839 52.2028 28.5302 52.4787 28.4543V22.2678Z" fill="#4D4F48"/>
<path d="M43.8158 36.7573C43.3831 36.8191 42.9399 36.8501 42.4866 36.8501C40.6421 36.8501 38.9213 36.3039 37.489 35.3663C36.9531 35.0159 36.4689 34.6244 36.0155 34.171C34.3565 32.512 33.3364 30.2244 33.3364 27.6999V28.586C31.5434 28.586 30.1008 27.1435 30.1008 25.3505C30.1008 24.3303 30.5748 23.4236 31.327 22.826C31.8835 22.3931 32.5738 22.1355 33.3364 22.1355V19.5698C33.3364 17.8799 34.4492 16.4476 35.9949 15.9633V27.6999C35.9949 29.9359 36.7986 31.9865 38.1382 33.5836C38.303 33.7897 38.4885 33.9855 38.674 34.171C40.0342 35.5311 41.8168 36.4688 43.8158 36.7573Z" fill="#4D4F48"/>
<path d="M43.2059 26.4721V27.7784C43.2059 28.2219 42.8468 28.5809 42.4033 28.5809C41.9599 28.5809 41.6008 28.2219 41.6008 27.7784V26.4721C41.6008 26.0286 41.9599 25.6696 42.4033 25.6696C42.8513 25.6696 43.2059 26.0342 43.2059 26.4721Z" fill="#4D4F48"/>
<path d="M39.6162 30.5552C39.9025 31.8717 41.073 32.8583 42.4753 32.8583C43.8776 32.8582 45.0481 31.8717 45.3344 30.5552L39.6162 30.5552Z" fill="#4D4F48"/>
<path d="M39.8917 23.2572C39.707 22.4081 38.9521 21.7719 38.0476 21.7719C37.1432 21.7719 36.3883 22.4081 36.2036 23.2572H39.8917Z" fill="#4D4F48"/>
<path d="M48.7591 23.2572C48.5745 22.4081 47.8195 21.7719 46.9151 21.7719C46.0106 21.7719 45.2557 22.4081 45.071 23.2572H48.7591Z" fill="#4D4F48"/>
<path d="M31.332 16.9697H52.0626V19.18H31.332V16.9697Z" fill="#575867"/>
<path d="M52.0735 19.3943V17.834C52.0735 17.3748 51.7012 17.0024 51.2419 17.0024H31.2524C31.2524 17.0024 27.3145 13.2207 30.8645 9.60589C33.6819 6.73459 43.5026 8.42615 47.419 9.24493C51.422 10.0824 54.9063 12.7138 56.1138 16.4314C56.1138 16.4314 57.8647 21.6838 52.0735 19.3943Z" fill="#475E36"/>
<path d="M35.5711 9.60311C32.0225 13.2214 35.9655 17.0018 35.9655 17.0018H31.2572C31.2572 17.0018 27.3143 13.2214 30.8629 9.60311C32.4053 8.03758 36.0582 7.82885 39.688 8.10716C37.9137 8.29275 36.4177 8.74497 35.5711 9.60311Z" fill="#395226"/>
<path d="M31.3264 16.9673H36.0112V19.1821H31.3264V16.9673Z" fill="#3E3D44"/>
<path d="M52.1447 47.5767V49.7434L50.6284 51.227H48.2502L46.7339 49.7434V47.5767H52.1447Z" fill="#4D4F48"/>
<path d="M49.097 47.5767H46.7339V49.7434L48.2502 51.227H49.097V47.5767Z" fill="#4D4F48"/>
<path d="M48.5862 47.5771H50.2926V51.4564H48.5862V47.5771Z" fill="#4D4F48"/>
<path d="M52.3951 52.9167C52.3951 53.7325 52.064 54.4773 51.5321 55.0093C51 55.5413 50.2552 55.8724 49.4394 55.8724C47.8078 55.8724 46.4836 54.5483 46.4836 52.9167C46.4836 52.1009 46.8147 51.356 47.3467 50.824C47.8787 50.2919 48.6236 49.9609 49.4394 49.9609C50.2552 49.9609 51 50.2919 51.5321 50.824C52.064 51.356 52.3951 52.1009 52.3951 52.9167Z" fill="#4D4F48"/>
<path d="M51.8573 54.6108C51.7591 54.7457 51.6488 54.8806 51.5261 55.0032C50.9987 55.5429 50.2505 55.8741 49.4409 55.8741C47.8096 55.8741 46.4849 54.5494 46.4849 52.9181C46.4849 52.0962 46.8161 51.3603 47.3435 50.8206C47.4661 50.698 47.601 50.5876 47.7483 50.5017C47.4048 50.9801 47.2086 51.5688 47.2086 52.1944C47.2086 53.8258 48.5332 55.1505 50.1646 55.1505C50.7902 55.1505 51.3789 54.9542 51.8573 54.6108Z" fill="#4D4F48"/>
<path d="M50.2327 53.0715C50.2001 53.104 50.1851 53.1491 50.1926 53.1942L50.3078 53.863C50.3279 53.9758 50.2076 54.0634 50.1049 54.0108L49.5037 53.6952C49.4637 53.6727 49.4136 53.6727 49.3735 53.6952L48.7748 54.0108C48.6721 54.0634 48.5519 53.9758 48.5719 53.863L48.6846 53.1942C48.6922 53.1491 48.6771 53.104 48.6446 53.0715L48.1611 52.5981C48.0759 52.5179 48.1235 52.3751 48.2388 52.3576L48.9076 52.2624C48.9527 52.2549 48.9927 52.2248 49.0128 52.1847L49.3134 51.576C49.3635 51.4734 49.5138 51.4734 49.5639 51.576L49.8645 52.1847C49.8845 52.2248 49.9246 52.2549 49.9697 52.2624L50.641 52.3576C50.7562 52.3751 50.8013 52.5179 50.7186 52.5981L50.2327 53.0715Z" fill="#4D4F48"/>
<path d="M52.549 47.1669C52.549 47.3989 52.375 47.5728 52.143 47.5728H46.7274C46.507 47.5728 46.3215 47.3989 46.3215 47.1669C46.3215 46.9466 46.507 46.761 46.7274 46.761H52.143C52.375 46.761 52.549 46.9466 52.549 47.1669Z" fill="#4D4F48"/>
<path d="M48.9192 47.5711H46.7274C46.507 47.5711 46.3215 47.3971 46.3215 47.1651C46.3215 46.9448 46.507 46.7593 46.7274 46.7593H48.9192C48.6988 46.7593 48.5133 46.9448 48.5133 47.1651C48.5133 47.3971 48.6988 47.5711 48.9192 47.5711Z" fill="#4D4F48"/>
<path d="M11.9239 38.6739L26.7316 23.8662L31.1976 28.3323L16.3899 43.14C15.1581 44.3718 13.1609 44.3718 11.9291 43.1399L11.9238 43.1347C10.692 41.9029 10.6921 39.9057 11.9239 38.6739Z" fill="#4D4F48"/>
<path d="M13.7374 43.1389C14.1117 43.5247 14.577 43.7857 15.0648 43.9445C13.9869 44.2623 12.7842 43.9899 11.9333 43.1389H11.9219C10.6966 41.9022 10.6966 39.9053 11.9219 38.6686L26.7286 23.8618L27.6364 24.7696L13.7374 38.6686C13.1246 39.2926 12.807 40.0982 12.807 40.9038C12.807 41.7094 13.1246 42.5149 13.7374 43.1389Z" fill="#4D4F48"/>
<path d="M33.162 25.9157C33.162 28.2077 31.3012 30.0684 29.0092 30.0684C26.7173 30.0684 24.8679 28.2077 24.8679 25.9157C24.8679 23.6238 26.7173 21.7744 29.0092 21.7744C31.3012 21.7744 33.162 23.6238 33.162 25.9157Z" fill="#4D4F48"/>
<path d="M32.6173 27.9804C31.9025 29.2286 30.5524 30.0682 29.0092 30.0682C26.7173 30.0682 24.8679 28.2074 24.8679 25.9154C24.8679 24.3724 25.6962 23.0449 26.9442 22.3301C26.5925 22.9314 26.3883 23.6462 26.3883 24.3951C26.3883 26.687 28.2377 28.5477 30.5296 28.5477C31.2898 28.5477 32.0046 28.3435 32.6173 27.9804Z" fill="#4D4F48"/>
</svg>
